Coordinates
version=1
nRows=4
nColumns=107
inDegrees=yes

Units are S.I. units (second, meters, Newtons, ...)
If the header above contains a line with 'inDegrees', this indicates whether rotational values are in degrees (yes) or radians (no).

endheader
time	sternoclavicular_r2	sternoclavicular_r3	unrotscap_r3	unrotscap_r2	acromioclavicular_r2	acromioclavicular_r3	acromioclavicular_r1	unrothum_r1	unrothum_r3	unrothum_r2	elv_angle	shoulder_elv	shoulder1_r2	shoulder_rot	elbow_flexion	pro_sup	deviation	flexion	proximal_distal_r1	proximal_distal_r3	cmc_flexion	cmc_abduction	mp_flexion	ip_flexion	mcp2_flexion	mcp2_abduction	pm2_flexion	md2_flexion	mcp3_flexion	mcp3_abduction	pm3_flexion	md3_flexion	mcp4_flexion	mcp4_abduction	pm4_flexion	md4_flexion	mcp5_flexion	mcp5_abduction	pm5_flexion	md5_flexion	bicpt_tx	bicpt_ty	bicpt_tz	bicpt2_tx	bicpt2_ty	bicpt2_tz	ptpt_tx	ptpt_ty	ptpt_tz	FCUpt_tx	FCUpt_ty	FCUpt_tz	EDCpt_tx	EDCpt_ty	EDCpt_tz	APLpt_tx	APLpt_ty	APLpt_tz	FPLpt_tx	FPLpt_ty	FPLpt_tz	FPLpt2_tx	FPLpt2_ty	FPLpt2_tz	PEC1pt2_tx	PEC1pt2_ty	PEC1pt2_tz	PEC1pt3_tx	PEC1pt3_ty	PEC1pt3_tz	PEC2pt2_tx	PEC2pt2_ty	PEC2pt2_tz	PEC2pt3_tx	PEC2pt3_ty	PEC2pt3_tz	PEC3pt2_tx	PEC3pt2_ty	PEC3pt2_tz	PEC3pt3_tx	PEC3pt3_ty	PEC3pt3_tz	DELT2pt2a_tx	DELT2pt2a_ty	DELT2pt2a_tz	DELT2pt2_tx	DELT2pt2_ty	DELT2pt2_tz	LAT1pt2_tx	LAT1pt2_ty	LAT1pt2_tz	LAT1pt3_tx	LAT1pt3_ty	LAT1pt3_tz	LAT2pt2_tx	LAT2pt2_ty	LAT2pt2_tz	LAT2pt3_tx	LAT2pt3_ty	LAT2pt3_tz	LAT3pt2_tx	LAT3pt2_ty	LAT3pt2_tz	LAT3pt3_tx	LAT3pt3_ty	LAT3pt3_tz
      0.00000000	     -0.32355841	      0.13704407	     -0.13704407	      0.32355841	     -0.06551400	      0.52946107	      0.23798911	     -0.23798911	     -0.52946107	      0.06551400	     98.45895723	     76.60532957	     -1.71843298	    -22.01862028	     30.91411484	     50.20388799	      0.27936451	     -0.11279658	      0.31525697	     -0.05639829	     28.49053647	    -15.40707710	    -14.58337208	      7.38127180	      7.54626996	      8.16184928	     30.14630017	     -5.08927004	      9.84758007	      1.55151540	     10.83038314	     13.19848192	      9.55852417	     -4.09012703	      8.29530780	     20.98229815	      8.03065671	    -13.98556190	     11.53256026	      5.27293407	      0.00092254	     -0.03114323	     -0.00487072	      0.01647438	     -0.01859797	     -0.00630776	      0.00384050	     -0.06729862	     -0.00409419	      0.00882362	     -0.18326802	     -0.00041965	     -0.00602445	      0.00181139	      0.00004495	      0.00010476	      0.00004190	      0.00020952	      0.00013409	      0.00040227	      0.00022628	     -0.00000630	     -0.00026133	     -0.00031359	      0.00251095	      0.00880962	      0.00612843	     -0.00821380	      0.01983229	     -0.01881088	      0.00251095	      0.00880962	      0.00612843	      0.00055326	      0.01838529	     -0.00966079	      0.00396450	      0.00489892	      0.01600798	      0.00000000	      0.00784878	      0.00000000	     -0.00719240	     -0.03323823	     -0.00647207	      0.01491401	     -0.00049473	     -0.00403045	     -0.00089373	      0.01498061	     -0.00612843	      0.00246840	      0.02161974	     -0.01787459	     -0.00600076	      0.01298036	     -0.00549005	     -0.01251221	      0.02740771	     -0.03068472	     -0.02349232	      0.01451247	     -0.00736263	     -0.01557643	      0.03166356	     -0.03834526
      0.03333333	     -0.32406816	      0.13725998	     -0.13725998	      0.32406816	     -0.06561721	      0.53029521	      0.23836405	     -0.23836405	     -0.53029521	      0.06561721	     98.58148445	     76.72601714	     -1.72057149	    -21.91176863	     30.55703250	     49.46210422	      0.23882701	     -0.11643557	      0.27743566	     -0.05821779	     30.07171827	    -16.50645611	    -13.44523946	      7.97657219	      2.61744164	      8.18888517	     26.17134552	     -7.19732397	      8.29251698	      1.05960639	      9.25729842	     12.32876526	      7.49904884	     -3.86181776	      4.04755548	     19.35223565	      2.30771915	    -13.78285194	      9.85294164	      5.26996639	      0.00091073	     -0.03110230	     -0.00486413	      0.01648967	     -0.01850097	     -0.00639717	      0.00389531	     -0.06726318	     -0.00403444	      0.00874669	     -0.18328552	     -0.00041988	     -0.00593544	      0.00177897	      0.00005423	      0.00010778	      0.00004311	      0.00021555	      0.00013795	      0.00041386	      0.00023280	     -0.00000864	     -0.00024940	     -0.00029928	      0.00251491	      0.00882350	      0.00613809	     -0.00822674	      0.01986353	     -0.01884052	      0.00251491	      0.00882350	      0.00613809	      0.00055413	      0.01841426	     -0.00967601	      0.00396905	      0.00490664	      0.01601900	      0.00000000	      0.00787371	      0.00000000	     -0.00720373	     -0.03329059	     -0.00649276	      0.01485502	     -0.00049137	     -0.00399027	     -0.00089514	      0.01500421	     -0.00613809	      0.00247228	      0.02165381	     -0.01790275	     -0.00601021	      0.01300081	     -0.00549870	     -0.01253193	      0.02745089	     -0.03073306	     -0.02352933	      0.01453533	     -0.00737423	     -0.01560097	      0.03171345	     -0.03840567
      0.06666667	     -0.32196649	      0.13636981	     -0.13636981	      0.32196649	     -0.06519166	      0.52685610	      0.23681819	     -0.23681819	     -0.52685610	      0.06519166	     99.20249586	     76.22842783	     -1.73141018	    -24.66544552	     30.35177961	     50.82211260	      0.17357604	     -0.15814847	      0.21090699	     -0.07907424	     30.49334585	    -17.28586208	     -9.76214117	      6.41633780	     -1.40755781	      8.03081389	     22.82462964	    -10.24522845	      6.18497515	      0.51210049	      8.36397448	     12.69612738	      5.01311796	     -3.83314950	      0.03123490	     20.55765520	     -3.32943046	    -13.65899928	      9.13283562	      5.22922555	      0.00090394	     -0.03107878	     -0.00486034	      0.01646067	     -0.01844521	     -0.00623266	      0.00379482	     -0.06732816	     -0.00414399	      0.00888787	     -0.18325331	     -0.00041915	     -0.00609864	      0.00183855	      0.00003700	      0.00014086	      0.00005635	      0.00028173	      0.00018031	      0.00054092	      0.00030426	     -0.00000919	     -0.00024576	     -0.00029491	      0.00249860	      0.00876628	      0.00609828	     -0.00817339	      0.01973471	     -0.01871833	      0.00249860	      0.00876628	      0.00609828	      0.00055054	      0.01829484	     -0.00961326	      0.00395027	      0.00487482	      0.01597332	      0.00000000	      0.00777120	      0.00000000	     -0.00715701	     -0.03307470	     -0.00640766	      0.01632293	     -0.00057937	     -0.00508349	     -0.00088933	      0.01490691	     -0.00609828	      0.00245625	      0.02151337	     -0.01778665	     -0.00597123	      0.01291649	     -0.00546304	     -0.01245065	      0.02727286	     -0.03053375	     -0.02337674	      0.01444106	     -0.00732641	     -0.01549979	      0.03150778	     -0.03815660
      0.10000000	     -0.32290653	      0.13676797	     -0.13676797	      0.32290653	     -0.06538200	      0.52839436	      0.23750963	     -0.23750963	     -0.52839436	      0.06538200	     99.13022520	     76.45099228	     -1.73014882	    -23.82846756	     30.07190074	     49.36063329	      0.15273761	     -0.15570924	      0.18819213	     -0.07785462	     31.58844210	    -17.30679025	     -8.87111352	      7.94576388	     -4.06412860	      8.26213431	     19.54093722	    -12.22577659	      4.69250238	      0.20992508	      7.35122750	     11.28047782	      3.48367053	     -3.65746317	     -3.72378333	     18.76773838	     -7.48399809	    -13.54435252	      7.31836039	      5.17888982	      0.00089469	     -0.03104670	     -0.00485517	      0.01649168	     -0.01836918	     -0.00640935	      0.00390281	     -0.06725834	     -0.00402626	      0.00873617	     -0.18328790	     -0.00041988	     -0.00592326	      0.00177454	      0.00005548	      0.00013901	      0.00005560	      0.00027802	      0.00017793	      0.00053379	      0.00030026	     -0.00001046	     -0.00023536	     -0.00028244	      0.00250590	      0.00879187	      0.00611608	     -0.00819725	      0.01979233	     -0.01877298	      0.00250590	      0.00879187	      0.00611608	      0.00055215	      0.01834825	     -0.00964133	      0.00395868	      0.00488905	      0.01599383	      0.00000000	      0.00781697	      0.00000000	     -0.00717790	     -0.03317126	     -0.00644566	      0.01588747	     -0.00055233	     -0.00473956	     -0.00089193	      0.01495043	     -0.00611608	      0.00246342	      0.02157619	     -0.01783858	     -0.00598867	      0.01295421	     -0.00547899	     -0.01248701	      0.02735249	     -0.03062290	     -0.02344499	      0.01448323	     -0.00734780	     -0.01554505	      0.03159977	     -0.03826800
